<svg xmlns="http://www.w3.org/2000/svg" xmlns:xlink="http://www.w3.org/1999/xlink" viewBox="0 0 225.8 23"><style>.st4{clip-path:url(#SVGID_2_)}.st5{fill:none}.st22{clip-path:url(#SVGID_16_)}.st34{fill:#4a4a4a}</style><g id="content"><defs><path id="SVGID_33_" d="M-18-21h260.3v64H-18z"/></defs><clipPath id="SVGID_2_"><use xlink:href="#SVGID_33_" overflow="visible"/></clipPath><path clip-path="url(#SVGID_2_)" fill="none" d="M.3-2.7H224v27.4H.3z"/><g class="st4"><path class="st5" d="M.3-2.7H22v27.4H.3V-2.7z"/><defs><path id="SVGID_35_" d="M20.3 21.9H2c-.9 0-1.7-.8-1.7-1.7V1.9C.3 1 1.1.2 2 .2h18.3c.9 0 1.7.8 1.7 1.7v18.3c0 .9-.8 1.7-1.7 1.7z"/></defs><clipPath id="SVGID_4_"><use xlink:href="#SVGID_35_" overflow="visible"/></clipPath><path d="M.3.1v21.7H22V.1H.3zm14 4H8c-.5 0-.8-.4-.8-.8s.3-.8.8-.9h2c0-.6.5-1.1 1.1-1.1.6 0 1.1.5 1.1 1.1h2c.5 0 .8.4.8.9s-.2.8-.7.8z" clip-path="url(#SVGID_4_)" fill="#4285f4"/><defs><path id="SVGID_37_" d="M20.3 21.9H2c-.9 0-1.7-.8-1.7-1.7V1.9C.3 1 1.1.2 2 .2h18.3c.9 0 1.7.8 1.7 1.7v18.3c0 .9-.8 1.7-1.7 1.7z"/></defs><clipPath id="SVGID_6_"><use xlink:href="#SVGID_37_" overflow="visible"/></clipPath><path d="M20.3.1H2C1.1.1.3.9.3 1.8V2C.3 1.1 1.1.3 2 .3h18.3c.9 0 1.7.8 1.7 1.7v-.1c0-1-.8-1.8-1.7-1.8z" clip-path="url(#SVGID_6_)" fill="#fff" fill-opacity=".2"/><defs><path id="SVGID_39_" d="M20.3 21.9H2c-.9 0-1.7-.8-1.7-1.7V1.9C.3 1 1.1.2 2 .2h18.3c.9 0 1.7.8 1.7 1.7v18.3c0 .9-.8 1.7-1.7 1.7z"/></defs><clipPath id="SVGID_8_"><use xlink:href="#SVGID_39_" overflow="visible"/></clipPath><path d="M.3.1v5.1H22V.1H.3zm14 4H8c-.5 0-.8-.4-.8-.8s.3-.8.8-.9h2c0-.6.5-1.1 1.1-1.1.6 0 1.1.5 1.1 1.1h2c.5 0 .8.4.8.9s-.2.8-.7.8z" clip-path="url(#SVGID_8_)" fill="#3f51b5"/><defs><path id="SVGID_41_" d="M20.3 21.9H2c-.9 0-1.7-.8-1.7-1.7V1.9C.3 1 1.1.2 2 .2h18.3c.9 0 1.7.8 1.7 1.7v18.3c0 .9-.8 1.7-1.7 1.7z"/></defs><clipPath id="SVGID_10_"><use xlink:href="#SVGID_41_" overflow="visible"/></clipPath><path d="M14.3 4.2H8c-.4 0-.8-.4-.8-.8v.1c0 .5.4.8.8.9h6.4c.5 0 .8-.4.8-.9v-.1c-.1.4-.4.7-.9.8z" opacity=".2" clip-path="url(#SVGID_10_)" fill="#fff"/><defs><path id="SVGID_43_" d="M20.3 21.9H2c-.9 0-1.7-.8-1.7-1.7V1.9C.3 1 1.1.2 2 .2h18.3c.9 0 1.7.8 1.7 1.7v18.3c0 .9-.8 1.7-1.7 1.7z"/></defs><clipPath id="SVGID_12_"><use xlink:href="#SVGID_43_" overflow="visible"/></clipPath><path d="M14.3 2.3h-2c0-.6-.5-1.1-1.1-1.1-.6 0-1.1.5-1.1 1.1H8c-.5 0-.8.4-.8.9v.1c0-.4.4-.8.8-.8h2c0-.6.5-1.1 1.1-1.1.6 0 1.1.5 1.1 1.1h2c.4 0 .8.4.8.8v-.1c.1-.5-.2-.9-.7-.9z" opacity=".2" clip-path="url(#SVGID_12_)" fill="#1a237e"/><path d="M20.3 21.7H2c-.9 0-1.7-.8-1.7-1.7v.1c0 .9.8 1.7 1.7 1.7h18.3c.9 0 1.7-.8 1.7-1.7V20c0 .9-.8 1.7-1.7 1.7z" fill="#1a237e" fill-opacity=".2"/><path d="M2 .3h18.3c.9 0 1.7.8 1.7 1.7v-.1C22 1 21.2.2 20.3.2H2C1.1.2.3 1 .3 1.9V2C.3 1.1 1.1.3 2 .3z" fill="#fff" fill-opacity=".2"/><path d="M16.3 13.8l-5.4-5.4c-.2-.2-.4-.3-.6-.3H6.6c-.5 0-.9.4-.9.9v3.7c0 .2.1.5.3.6l5.4 5.4c.2.2.4.3.6.3.2 0 .5-.1.6-.3l3.7-3.7c.2-.2.3-.4.3-.6 0-.2-.1-.4-.3-.6zm-9.2-3.7c-.3 0-.6-.3-.6-.6.1-.2.3-.5.6-.5s.6.3.6.6-.2.5-.6.5z" fill="#f5f5f5"/><path d="M16.3 13.8l-5.4-5.4c-.2-.2-.4-.3-.6-.3H6.6c-.5 0-.9.4-.9.9v.1c0-.5.4-.9.9-.9h3.7c.2 0 .5.1.6.3l5.4 5.4c.1.1.2.3.2.5v-.1c.1-.1 0-.3-.2-.5zm-9.2-3.7c.3 0 .6-.3.6-.6v-.1c0 .3-.3.5-.6.5s-.5-.1-.5-.4v.1c0 .3.2.5.5.5z" opacity=".2" fill="#fff"/><path d="M7.1 9.1c.3 0 .5.2.6.5v-.1c0-.2-.2-.5-.6-.5-.3 0-.5.3-.5.6v.1c0-.3.3-.6.5-.6zm9.2 5.9l-3.7 3.7c-.2.2-.4.3-.6.3-.2 0-.5-.1-.6-.3L6 13.3c-.2-.2-.3-.4-.3-.6v.1c0 .2.1.5.3.6l5.4 5.4c.2.2.4.3.6.3.2 0 .5-.1.6-.3l3.7-3.7c.2-.2.3-.4.3-.6v-.1c-.1.3-.1.5-.3.6z" opacity=".2" fill="#1a237e"/><linearGradient id="SVGID_13_" gradientUnits="userSpaceOnUse" x1="339.809" y1="-1077.667" x2="351.935" y2="-1089.792" gradientTransform="matrix(.5 0 0 -.5 -155.5 -522)"><stop offset="0" stop-color="#1a237e" stop-opacity=".2"/><stop offset="1" stop-color="#1a237e" stop-opacity=".02"/></linearGradient><path d="M22 19.5l-5.6-5.6c.1.1.2.3.2.5s-.1.5-.3.6l-3.7 3.7c-.1.2-.4.3-.6.3-.2 0-.4-.1-.5-.2l3 3H22v-2.3z" fill="url(#SVGID_13_)"/><radialGradient id="SVGID_14_" cx="313" cy="-1044.857" r="58.095" gradientTransform="matrix(.5 0 0 -.5 -155.5 -522)" gradientUnits="userSpaceOnUse"><stop offset="0" stop-color="#fff" stop-opacity=".1"/><stop offset="1" stop-color="#fff" stop-opacity="0"/></radialGradient><path d="M22 20.1V1.9C22 1 21.2.2 20.3.2H2C1.1.2.3 1 .3 1.9v18.3c0 .9.8 1.7 1.7 1.7h18.3c.9 0 1.7-.8 1.7-1.8zm-7.7-16H8c-.5 0-.8-.4-.8-.8s.3-.8.8-.9h2c0-.6.5-1.1 1.1-1.1.6 0 1.1.5 1.1 1.1h2c.5 0 .8.4.8.9s-.2.8-.7.8z" fill="url(#SVGID_14_)"/></g><g class="st4"><defs><path id="SVGID_47_" d="M28.9-2.7H224v27.4H28.9z"/></defs><clipPath id="SVGID_16_"><use xlink:href="#SVGID_47_" overflow="visible"/></clipPath><path clip-path="url(#SVGID_16_)" fill="none" d="M28.9 3.1H224v19.4H28.9z"/><g class="st22"><path class="st34" d="M92.9 4.8h1.7l4.6 8h.1l4.6-8h1.7v13.1h-1.7v-7.8l.1-2.2h-.1l-4.1 7.2h-1l-4.1-7.2h-.1l.1 2.2v7.8H93V4.8zM107.1 13.4c0-2.5 1.8-4.8 4.4-4.8 2.7 0 4.4 1.9 4.4 4.8v.3h-7.1c.1 1.9 1.5 2.9 2.9 2.9 1 0 2-.4 2.5-1.5l1.5.6c-.5 1.3-1.8 2.5-3.9 2.5-2.9-.1-4.7-2.1-4.7-4.8zm4.3-3.3c-1.2 0-2.2.8-2.6 2.2h5.2c0-.8-.7-2.2-2.6-2.2zM117.2 17.9v-9h1.6v1.5h.1c.4-1 1.7-1.7 2.6-1.7.5 0 .9.1 1.3.2l-.6 1.6c-.2-.1-.5-.1-.9-.1-1.2 0-2.3 1-2.3 2.6v4.9h-1.8zM122.8 13.4c0-2.7 1.9-4.8 4.6-4.8 2.1 0 3.4 1.3 3.9 2.6l-1.5.6c-.4-1.1-1.3-1.7-2.5-1.7-1.4 0-2.8 1.3-2.8 3.2s1.4 3.2 2.8 3.2c1.2 0 2.2-.6 2.6-1.7l1.5.6c-.5 1.3-1.8 2.6-4 2.6-2.7.1-4.6-1.9-4.6-4.6zM134.3 8.9l-.1 1.2h.1c.5-.8 1.6-1.5 2.8-1.5 2.3 0 3.4 1.6 3.4 3.8v5.5h-1.7v-5.2c0-1.9-.9-2.5-2.2-2.5-1.5 0-2.4 1.4-2.4 2.8v5h-1.7V4.8h1.7v4.1zM142 15.2c0-2 1.8-3.1 3.9-3.1 1.2 0 2.1.3 2.4.5v-.3c0-1.4-1.1-2.2-2.3-2.2-.9 0-1.8.5-2.1 1.3l-1.5-.7c.3-.8 1.4-2.2 3.6-2.2s4 1.3 4 3.8v5.4h-1.6v-1.2h-.1c-.5.7-1.4 1.5-2.9 1.5-1.9.1-3.4-1-3.4-2.8zm6.3-1.2s-.7-.6-2.1-.6c-1.8 0-2.5 1-2.5 1.8 0 1 1 1.4 1.9 1.4 1.3 0 2.7-1.1 2.7-2.6zM153.3 10.1c.5-.8 1.7-1.5 2.9-1.5 2.3 0 3.4 1.6 3.4 3.8v5.5h-1.7v-5.2c0-1.9-.9-2.5-2.2-2.5-1.5 0-2.4 1.4-2.4 2.8v5h-1.7V9h1.6v1.1zM162.1 15.1v-4.7h-1.6V8.9h1.6V6.2h1.7v2.7h2.2v1.5h-2.2V15c0 1 .4 1.5 1.2 1.5.3 0 .5 0 .8-.1l.6 1.4c-.4.2-.8.2-1.4.2-1.9 0-2.9-1-2.9-2.9zM170.3 11.3c0-3.9 2.9-6.8 6.8-6.8 2 0 3.6.8 4.8 2.1l-1.2 1.1c-.9-1.1-2.1-1.7-3.6-1.7-2.8 0-5.1 2-5.1 5.2s2.3 5.2 5.1 5.2c1.6 0 3-.8 4-1.9l1.2 1.2c-1.2 1.4-3 2.3-5.2 2.3-3.9.1-6.8-2.8-6.8-6.7zM183.1 13.4c0-2.5 1.8-4.8 4.4-4.8 2.7 0 4.4 1.9 4.4 4.8v.3h-7.1c.1 1.9 1.5 2.9 2.9 2.9 1 0 2-.4 2.5-1.5l1.5.6c-.5 1.3-1.8 2.5-3.9 2.5-2.9-.1-4.7-2.1-4.7-4.8zm4.3-3.3c-1.2 0-2.2.8-2.6 2.2h5.2c0-.8-.7-2.2-2.6-2.2zM194.8 10.1c.5-.8 1.7-1.5 2.9-1.5 2.3 0 3.4 1.6 3.4 3.8v5.5h-1.7v-5.2c0-1.9-.9-2.5-2.2-2.5-1.5 0-2.4 1.4-2.4 2.8v5h-1.7V9h1.6v1.1zM203.6 15.1v-4.7H202V8.9h1.6V6.2h1.7v2.7h2.2v1.5h-2.2V15c0 1 .4 1.5 1.2 1.5.3 0 .5 0 .8-.1l.6 1.4c-.4.2-.8.2-1.4.2-1.9 0-2.9-1-2.9-2.9zM208.2 13.4c0-2.5 1.8-4.8 4.4-4.8 2.7 0 4.4 1.9 4.4 4.8v.3h-7.1c.1 1.9 1.5 2.9 2.9 2.9 1 0 2-.4 2.5-1.5l1.5.6c-.5 1.3-1.8 2.5-3.9 2.5-2.8-.1-4.7-2.1-4.7-4.8zm4.4-3.3c-1.2 0-2.2.8-2.6 2.2h5.2c0-.8-.7-2.2-2.6-2.2zM218.3 17.9v-9h1.6v1.5h.1c.4-1 1.7-1.7 2.6-1.7.5 0 .9.1 1.3.2l-.6 1.6c-.2-.1-.5-.1-.9-.1-1.2 0-2.3 1-2.3 2.6v4.9h-1.8z"/></g><g class="st22"><path class="st34" d="M29 10.7c0-4.1 3.5-7.5 7.6-7.5 2.3 0 3.9.9 5.1 2.1l-1.4 1.4c-.9-.8-2.1-1.5-3.7-1.5-3 0-5.4 2.4-5.4 5.4 0 3 2.4 5.4 5.4 5.4 2 0 3.1-.8 3.8-1.5.6-.6 1-1.4 1.1-2.6h-4.9v-2h6.9c.1.4.1.8.1 1.3 0 1.5-.4 3.4-1.8 4.8-1.3 1.4-3 2.1-5.2 2.1-4.2 0-7.6-3.3-7.6-7.4zM49.1 8.5c-2.7 0-4.8 2-4.8 4.8s2.2 4.8 4.8 4.8c2.7 0 4.8-2 4.8-4.8.1-2.8-2.1-4.8-4.8-4.8zm0 7.7c-1.5 0-2.7-1.2-2.7-2.9s1.3-2.9 2.7-2.9c1.5 0 2.7 1.2 2.7 2.9.1 1.7-1.2 2.9-2.7 2.9zM59.7 8.5c-2.7 0-4.8 2-4.8 4.8s2.2 4.8 4.8 4.8c2.7 0 4.8-2 4.8-4.8.1-2.8-2.1-4.8-4.8-4.8zm0 7.7c-1.5 0-2.7-1.2-2.7-2.9s1.3-2.9 2.7-2.9 2.7 1.2 2.7 2.9-1.2 2.9-2.7 2.9zM72.7 8.8v.8h-.1c-.5-.6-1.4-1.1-2.5-1.1-2.4 0-4.6 2.1-4.6 4.8 0 2.7 2.2 4.8 4.6 4.8 1.2 0 2.1-.5 2.5-1.1h.1v.7c0 1.8-1 2.8-2.6 2.8-1.3 0-2.1-.9-2.4-1.7l-1.8.8c.5 1.3 1.9 2.9 4.3 2.9 2.5 0 4.6-1.5 4.6-5V8.8h-2.1zm-2.4 7.4c-1.5 0-2.7-1.2-2.7-2.9s1.2-2.9 2.7-2.9c1.4 0 2.6 1.2 2.6 2.9-.1 1.7-1.2 2.9-2.6 2.9zM76.2 3.7h2.1v14.2h-2.1zM84.1 16.2c-1.1 0-1.8-.5-2.3-1.5l6.5-2.7-.3-.4c-.4-1.1-1.6-3.1-4.1-3.1-2.5 0-4.6 2-4.6 4.8 0 2.7 2 4.8 4.8 4.8 2.2 0 3.5-1.4 4-2.1l-1.6-1.1c-.6.8-1.3 1.3-2.4 1.3zm-.2-5.8c.8 0 1.6.4 1.8 1l-4.3 1.8c0-1.9 1.5-2.8 2.5-2.8z"/><path class="st5" d="M28.9 3.1h59.4v19.4H28.9z"/></g></g></g></svg>